<svg xmlns="http://www.w3.org/2000/svg" version="1.1" xmlns:xlink="http://www.w3.org/1999/xlink" viewBox="0 0 200 200" width="200" height="200"><metadata><rdf:RDF xmlns:rdf="http://www.w3.org/1999/02/22-rdf-syntax-ns#" xmlns:dc="http://purl.org/dc/elements/1.1/"><rdf:Description><dc:creator>RealFaviconGenerator</dc:creator><dc:source>https://realfavicongenerator.net</dc:source></rdf:Description></rdf:RDF></metadata><rect width="200" height="200" fill="url('#gradient')"></rect><defs><linearGradient id="gradient" gradientTransform="rotate(0 0.5 0.5)"><stop offset="0%" stop-color="#ceaa96"></stop><stop offset="100%" stop-color="#b3c8a9"></stop></linearGradient></defs><g><g fill="#445272" transform="matrix(1.3278492553945902,0,0,1.3278492553945902,34.57440598188303,107.26208520189219)" stroke="#c8512e" stroke-width="0"><path d="M6.69-4.82L4.50-4.82L4.50 0L1.07 0L1.07-14.22L6.75-14.22Q8.38-14.22 9.63-13.62Q10.89-13.02 11.58-11.91Q12.27-10.80 12.27-9.39L12.27-9.39Q12.27-7.31 10.78-6.07Q9.29-4.82 6.69-4.82L6.69-4.82ZM4.50-11.57L4.50-7.47L6.75-7.47Q7.74-7.47 8.27-7.97Q8.79-8.47 8.79-9.38L8.79-9.38Q8.79-10.37 8.25-10.97Q7.71-11.56 6.79-11.57L6.79-11.57L4.50-11.57ZM20.33 0L20.23-1.14Q19.19 0.20 17.41 0.20L17.41 0.20Q15.67 0.20 14.78-0.82Q13.89-1.83 13.89-3.72L13.89-3.72L13.89-10.57L17.18-10.57L17.18-3.70Q17.18-2.34 18.50-2.34L18.50-2.34Q19.63-2.34 20.11-3.15L20.11-3.15L20.11-10.57L23.42-10.57L23.42 0L20.33 0ZM29.25 0L25.95 0L25.95-8.28L24.41-8.28L24.41-10.57L25.95-10.57L25.95-11.41Q25.95-13.21 27.01-14.21Q28.08-15.21 30-15.21L30-15.21Q30.70-15.21 31.54-15L31.54-15L31.55-12.58Q31.25-12.67 30.74-12.67L30.74-12.67Q29.25-12.67 29.25-11.38L29.25-11.38L29.25-10.57L31.31-10.57L31.31-8.28L29.25-8.28L29.25 0ZM36.49 0L33.19 0L33.19-8.28L31.66-8.28L31.66-10.57L33.19-10.57L33.19-11.41Q33.19-13.21 34.26-14.21Q35.32-15.21 37.25-15.21L37.25-15.21Q37.95-15.21 38.79-15L38.79-15L38.80-12.58Q38.50-12.67 37.99-12.67L37.99-12.67Q36.49-12.67 36.49-11.38L36.49-11.38L36.49-10.57L38.55-10.57L38.55-8.28L36.49-8.28L36.49 0ZM42.27-10.57L43.94-4.61L45.69-10.57L49.22-10.57L44.91 1.77L44.73 2.22Q43.81 4.27 41.48 4.27L41.48 4.27Q40.84 4.27 40.13 4.07L40.13 4.07L40.13 1.72L40.56 1.72Q41.25 1.72 41.62 1.52Q41.98 1.32 42.16 0.80L42.16 0.80L42.42 0.10L38.75-10.57L42.27-10.57ZM59.26-14.22L61.24-5.30L62.87-14.22L66.27-14.22L63.25 0L59.70 0L57.79-8.11L55.93 0L52.38 0L49.36-14.22L52.76-14.22L54.39-5.30L56.35-14.22L59.26-14.22ZM76.38 0L73.09 0Q72.91-0.32 72.77-0.95L72.77-0.95Q71.87 0.20 70.23 0.20L70.23 0.20Q68.74 0.20 67.70-0.71Q66.65-1.61 66.65-2.98L66.65-2.98Q66.65-4.70 67.92-5.58Q69.19-6.46 71.61-6.46L71.61-6.46L72.63-6.46L72.63-7.01Q72.63-8.47 71.37-8.47L71.37-8.47Q70.20-8.47 70.20-7.31L70.20-7.31L66.90-7.31Q66.90-8.85 68.21-9.80Q69.51-10.76 71.53-10.76Q73.55-10.76 74.73-9.78Q75.90-8.79 75.93-7.07L75.93-7.07L75.93-2.39Q75.95-0.94 76.38-0.17L76.38-0.17L76.38 0ZM71.03-2.15L71.03-2.15Q71.64-2.15 72.05-2.41Q72.45-2.68 72.63-3.01L72.63-3.01L72.63-4.70L71.67-4.70Q69.95-4.70 69.95-3.15L69.95-3.15Q69.95-2.71 70.25-2.43Q70.56-2.15 71.03-2.15ZM81.22-15L81.22 0L77.92 0L77.92-15L81.22-15ZM86.72-15L86.72 0L83.42 0L83.42-15L86.72-15ZM94.28-2.97L94.28-2.97Q94.28-3.39 93.84-3.64Q93.40-3.90 92.17-4.17Q90.94-4.44 90.14-4.89Q89.34-5.33 88.92-5.97Q88.50-6.60 88.50-7.42L88.50-7.42Q88.50-8.88 89.70-9.82Q90.90-10.76 92.84-10.76L92.84-10.76Q94.93-10.76 96.20-9.81Q97.47-8.87 97.47-7.32L97.47-7.32L94.17-7.32Q94.17-8.59 92.83-8.59L92.83-8.59Q92.31-8.59 91.96-8.31Q91.61-8.02 91.61-7.59L91.61-7.59Q91.61-7.15 92.04-6.88Q92.47-6.60 93.41-6.43Q94.36-6.25 95.07-6.01L95.07-6.01Q97.45-5.19 97.45-3.07L97.45-3.07Q97.45-1.62 96.17-0.71Q94.88 0.20 92.84 0.20L92.84 0.20Q91.48 0.20 90.42-0.29Q89.36-0.78 88.76-1.62Q88.16-2.46 88.16-3.39L88.16-3.39L91.24-3.39Q91.26-2.66 91.73-2.32Q92.20-1.98 92.93-1.98L92.93-1.98Q93.60-1.98 93.94-2.26Q94.28-2.53 94.28-2.97Z"></path></g></g></svg>